<svg class="svg-icon" style="width: 1em;height: 1em;vertical-align: middle;fill: currentColor;overflow: hidden;" viewBox="0 0 1024 1024" version="1.1" xmlns="http://www.w3.org/2000/svg"><path d="M12 12m500 0l0 0q500 0 500 500l0 0q0 500-500 500l0 0q-500 0-500-500l0 0q0-500 500-500Z" fill="#DEE5EC" /><path d="M413.2 316.09a80.63 80.63 0 0 1 80.39 80.39v281.36a80.39 80.39 0 0 1-160.78 0V396.48a80.63 80.63 0 0 1 80.39-80.39z m0 0" fill="#005EB8" /><path d="M667.22 407.73H526.55a10 10 0 1 1 0-20.09h140.67a10 10 0 1 1 0 20.09zM405 433.66a10.07 10.07 0 0 1-6.83-2.62l-37.38-34.57a10.1 10.1 0 0 1 13.67-14.87L405 409.94l49.23-45.63a10.1 10.1 0 1 1 13.66 14.88L411.79 431a11.14 11.14 0 0 1-6.83 2.62z m262.22 114.75H526.55a10 10 0 1 1 0-20.09h140.67a10 10 0 1 1 0 20.09zM405 572.32a10.06 10.06 0 0 1-6.83-2.61l-37.38-34.56a10.1 10.1 0 0 1 13.67-14.88L405 548.6l49.2-45.6a10.1 10.1 0 1 1 13.66 14.87l-56.07 51.83a10 10 0 0 1-6.83 2.62z m262.22 116.77H526.55a10 10 0 1 1 0-20.09h140.67a10 10 0 1 1 0 20.09z m-252.81 40.18A50.24 50.24 0 1 1 464.65 679a50.23 50.23 0 0 1-50.24 50.23z m0-80.38A30.15 30.15 0 1 0 444.56 679a30.1 30.1 0 0 0-30.15-30.15z m222.67-371.38A10 10 0 0 1 627 267.46V146.88a10 10 0 0 0-10-10H416a10 10 0 0 0-10 10v120.58a10 10 0 1 1-20.09 0V146.88A30.11 30.11 0 0 1 416 116.73h201a30.1 30.1 0 0 1 30.14 30.15v120.58a10 10 0 0 1-10.06 10.05z m0 0" fill="#0D1633" /><path d="M577.39 248.16H455.81a10 10 0 1 1 0-20.09h121.58a10 10 0 0 1 10 10.05 10.07 10.07 0 0 1-10 10z m0 0" fill="#0D1633" /><path d="M735.75 812.08h-438.5a30.1 30.1 0 0 1-30.15-30.14V258.21a30.11 30.11 0 0 1 30.15-30.15h38.38a10 10 0 0 1 0 20.09h-38.38a10 10 0 0 0-10.05 10v523.77A10 10 0 0 0 297.25 792h438.5a10 10 0 0 0 10-10.05V258.2a10 10 0 0 0-10-10h-38.37a10 10 0 1 1 0-20.09h38.37a30.11 30.11 0 0 1 30.15 30.15v523.68a30.1 30.1 0 0 1-30.15 30.14z m0 0" fill="#0D1633" /><path d="M777.76 874H255.24A50.24 50.24 0 0 1 205 823.74v-602.9a50.24 50.24 0 0 1 50.24-50.24h80.39a10 10 0 0 1 0 20.09h-80.39a30.11 30.11 0 0 0-30.15 30.15v602.9a30.11 30.11 0 0 0 30.15 30.15h522.52a30.11 30.11 0 0 0 30.15-30.15v-602.9a30.11 30.11 0 0 0-30.15-30.15h-80.38a10 10 0 1 1 0-20.09h80.38A50.24 50.24 0 0 1 828 220.84v602.9A50.39 50.39 0 0 1 777.76 874z m0 0" fill="#0D1633" /></svg>