<svg class="svg-icon" style="width: 1em; height: 1em;vertical-align: middle;fill: currentColor;overflow: hidden;" viewBox="0 0 1024 1024" version="1.1" xmlns="http://www.w3.org/2000/svg"><path d="M508.4 317.2c-107.6 0-194.8 87.6-194.8 194.8 0 107.6 87.6 194.8 194.8 194.8 107.6 0 194.8-87.6 194.8-194.8 0-107.6-87.6-194.8-194.8-194.8z m24 302.8l-10 4v34.4h-27.6V624l-10-4c-19.2-8-33.2-24-38.4-43.6h29.2c6 12 18.4 20.4 33.2 20.4 20.4 0 36.8-16.4 36.8-36.8 0-18-14.8-32.8-32.8-32.8H508c-35.2 0-64-28.8-64-64 0-26.4 16-50 40.4-59.6l10-4v-34.4h27.6v34.4l10 4c19.6 8 34 24.8 38.8 44.8h-29.2c-5.6-12.8-18.8-21.6-33.6-21.6-20.4 0-36.8 16.4-36.8 36.8 0 20 16.4 36.4 36.4 36.4h4.4c33.2 0 60.4 27.2 60.4 60.4 0.4 26.4-15.6 50-40 59.6z" fill="#FFD552" /><path d="M548.8 892.8h-81.2l-25.2-61.2c-23.2-4.8-46.4-12.4-68-22.4l-56.4 35.2L252 796.8l16-65.6c-14.4-16-27.2-33.6-38.4-52.4l-68.4-3.6-26.4-76.8L188 552c-1.2-12.4-2-24.4-2-35.6 0-12 0.8-24.4 2.4-37.2l-54.4-46.4 25.2-77.2L232 350c10.8-18.4 23.6-35.2 38-50.8l-17.2-72 66-47.6 64 40c18.4-8 37.6-14 56.8-18l28.8-70h81.2l28.8 70c19.2 4.4 38.4 10.4 56.8 18l64-40L764 226.8l-17.2 72c13.2 14.4 24.8 29.6 34.8 46l73.2 4 26.4 76.8-53.2 47.2c2 14.4 2.8 28.8 2.8 43.2 0 10-0.4 20-1.2 30l53.6 45.6-25.2 77.2-68 5.2c-11.6 20.4-25.6 40-41.2 57.6l16 65.6-66 47.6-56.4-35.2c-22 10-44.8 17.6-68 22.4l-25.6 60.8z m-72.8-12h64.8l24.4-59.6 3.2-0.8c24.4-4.8 48.8-12.8 71.6-23.2l2.8-1.2 55.2 34.4 52.8-38-15.6-64 2-2.4c16.8-18.4 31.6-38.8 43.6-60.8l1.6-2.8 66.8-4.8 20-61.6-52.4-44.4 0.4-3.2c1.2-10.4 1.6-21.2 1.6-32 0-14.8-1.2-29.6-3.2-44.8l-0.4-3.2 52.4-46.4-21.2-61.6-71.6-4-1.6-2.8c-10.8-17.2-23.2-34-37.2-49.2l-2.4-2.4 16.8-70.4-52.8-38-62.4 38.8-2.8-1.2c-19.6-8.4-40-15.2-60.4-19.2l-3.2-0.8-28-68.4H476l-28 68.4-3.2 0.8c-20.8 4.4-41.2 10.8-60.4 19.2l-2.8 1.2-62.4-38.8L266 232l16.8 70.4-2.4 2.4c-15.2 16.4-28.8 34.4-40 54l-1.6 2.8-71.6 5.2-20 61.6 53.2 45.2-0.4 3.2c-1.6 14-2.4 26.4-2.4 39.2 0 12 0.8 24.4 2.4 37.6l0.4 3.2-51.6 45.2 21.2 61.6 66.8 3.6 1.6 2.8c11.6 20 25.2 38.8 40.4 55.6l2 2.4-15.6 64 52.8 38 55.2-34.4 2.8 1.2c22.8 10.8 46.8 18.4 71.6 23.2l3.2 0.8 25.2 60z" fill="#4A555F" /><path d="M508.4 733.2c-4.4 0-8.4 0-12.4-0.4l0.8-12c4 0.4 8 0.4 11.6 0.4v12z m12.4-0.4l-0.8-12c4-0.4 8-0.4 11.6-0.8l1.2 12c-3.6 0-7.6 0.4-12 0.8z m-37.2-1.2c-4-0.4-8.4-1.2-12.4-1.6l2-12c4 0.8 7.6 1.2 11.6 1.6l-1.2 12z m62-1.6l-2-12c4-0.8 7.6-1.6 11.6-2.4l2.8 11.6c-4.4 1.2-8.4 2-12.4 2.8z m-86.4-2.4c-4-0.8-8-2-12-3.2l3.2-11.6c3.6 1.2 7.6 2 11.2 2.8l-2.4 12z m110.4-3.2l-3.2-11.6c3.6-1.2 7.6-2.4 11.2-3.6l4 11.2c-4 1.6-8 2.8-12 4z m-134.4-3.6c-4-1.2-7.6-2.8-11.6-4.4l4.8-11.2c3.6 1.6 7.2 2.8 10.8 4l-4 11.6z m158-4.8l-4.8-11.2 10.8-4.8 5.2 10.8c-3.6 2-7.6 4-11.2 5.2z m-180.8-4.8c-3.6-1.6-7.6-3.6-11.2-5.6l6-10.4c3.2 2 6.8 3.6 10.4 5.2l-5.2 10.8z m202.8-5.6l-6-10.4c3.2-2 6.8-4 10-6l6.4 10.4c-3.2 1.6-6.8 4-10.4 6z m-224.4-6.4c-3.6-2-6.8-4.4-10.4-6.8l6.8-10c3.2 2.4 6.4 4.4 9.6 6.4l-6 10.4z m245.6-6.8l-6.8-10c3.2-2.4 6.4-4.8 9.2-7.2l7.6 9.6c-3.6 2.4-6.8 5.2-10 7.6z m-266-7.6c-3.2-2.4-6.4-5.2-9.6-8l8-8.8c2.8 2.8 6 5.2 8.8 7.6l-7.2 9.2z m285.2-8l-8-8.8c2.8-2.8 5.6-5.2 8.4-8l8.4 8.4c-2.8 2.8-5.6 5.6-8.8 8.4zM352 668.4c-2.8-2.8-6-6-8.4-9.2l9.2-8c2.4 2.8 5.2 5.6 8 8.4l-8.8 8.8z m321.2-9.2l-8.8-8c2.4-2.8 5.2-6 7.6-8.8l9.6 7.6c-2.8 2.8-5.6 6-8.4 9.2z m-337.6-9.6c-2.4-3.2-5.2-6.4-7.6-10l10-6.8c2.4 3.2 4.8 6.4 7.2 9.2l-9.6 7.6z m353.2-9.6l-10-6.8c2.4-3.2 4.4-6.4 6.4-9.6l10.4 6.4c-2.4 2.8-4.4 6.4-6.8 10z m-367.6-10.4c-2-3.6-4.4-7.2-6.4-10.8l10.4-6c2 3.2 4 6.8 6 10l-10 6.8z m380.8-10.8l-10.4-6c2-3.6 3.6-6.8 5.2-10.4l10.8 5.2c-2 4-3.6 7.6-5.6 11.2zM309.2 608c-1.6-3.6-3.6-7.6-5.2-11.2l11.2-4.8 4.8 10.8-10.8 5.2z m403.6-11.6l-11.2-4.8c1.6-3.6 2.8-7.2 4-10.8l11.2 4c-1.2 4-2.8 8-4 11.6z m-413.2-11.2c-1.2-4-2.8-8-3.6-12l11.6-3.2c1.2 3.6 2.4 7.6 3.6 11.2l-11.6 4z m421.2-12l-11.6-3.2c1.2-3.6 2-7.6 2.8-11.2l11.6 2.8c-0.8 3.6-1.6 7.6-2.8 11.6z m-428-12l-2.4-12 12-2c0.8 4 1.6 7.6 2.4 11.6l-12 2.4z m433.6-12.4l-12-2c0.8-4 1.2-7.6 1.6-11.6l12 1.2c-0.4 4.4-1.2 8.4-1.6 12.4z m-437.6-12c-0.4-4-0.8-8.4-1.2-12.4l12-0.8c0.4 4 0.4 8 0.8 11.6l-11.6 1.6z m440.4-12.4l-12-0.8c0.4-4 0.4-7.6 0.4-11.6h12c-0.4 4-0.4 8-0.4 12.4z m-442-11.2v-1.2c0-4 0-8.4 0.4-12.4l12 0.8c-0.4 3.6-0.4 7.6-0.4 11.2v0.4h-6l-6 1.2z m429.6-13.2c-0.4-4-0.4-7.6-0.8-11.6l12-1.2c0.4 4 0.8 8.4 1.2 12.4l-12.4 0.4z m-416.4-11.2l-12-1.2c0.4-4 1.2-8 1.6-12.4l12 2c-0.4 3.6-0.8 7.6-1.6 11.6z m414-12c-0.8-4-1.6-7.6-2.4-11.6l11.6-2.8 2.4 12-11.6 2.4z m-410-11.2l-11.6-2.8c0.8-4 2-8 3.2-12l11.6 3.2c-1.2 4-2.4 7.6-3.2 11.6z m404.8-11.6c-1.2-3.6-2.4-7.6-3.6-11.2l11.2-4c1.2 4 2.8 8 3.6 12l-11.2 3.2z m-398.4-10.8l-11.2-4c1.2-4 2.8-8 4.4-11.6l11.2 4.8c-1.6 3.2-2.8 6.8-4.4 10.8z m390.4-11.2l-4.8-10.8 10.8-5.2c1.6 3.6 3.6 7.6 5.2 11.2l-11.2 4.8zM320 421.2l-10.8-5.2c1.6-3.6 3.6-7.6 5.6-11.2l10.4 6c-1.6 3.6-3.6 7.2-5.2 10.4z m371.2-10.4c-2-3.6-4-6.8-6-10l10.4-6.4c2 3.6 4.4 7.2 6.4 10.8l-10.8 5.6z m-360-10l-10.4-6.4c2-3.6 4.4-6.8 6.8-10.4l10 6.8c-2 3.6-4.4 6.8-6.4 10z m347.6-9.6c-2.4-3.2-4.8-6.4-7.2-9.2l9.6-7.6c2.4 3.2 5.2 6.4 7.6 10l-10 6.8z m-334-9.6l-9.6-7.6c2.4-3.2 5.2-6.4 8-9.6l8.8 8c-2 3.2-4.8 6.4-7.2 9.2z m319.2-8.8c-2.4-2.8-5.2-5.6-8-8.4l8.4-8.4c2.8 2.8 5.6 6 8.4 9.2l-8.8 7.6z m-303.6-8.4L352 355.6c2.8-2.8 6-5.6 9.2-8.4l8 8.8c-3.2 2.8-6 5.6-8.8 8.4z m287.2-8.4c-2.8-2.4-6-5.2-8.8-7.6l7.6-9.6c3.2 2.4 6.4 5.2 9.6 8l-8.4 9.2z m-269.6-7.2l-7.6-9.6c3.2-2.4 6.4-5.2 10-7.6l6.8 10c-3.2 2.4-6 4.4-9.2 7.2z m251.2-7.2c-3.2-2.4-6.4-4.4-9.6-6.4l6.4-10.4c3.6 2.4 6.8 4.4 10.4 6.8l-7.2 10z m-232-6.4l-6.4-10.4c3.6-2.4 7.2-4.4 10.8-6.4l6 10.4c-4 2-7.2 4-10.4 6.4z m212-6c-3.6-2-6.8-3.6-10.4-5.2l5.2-10.8c3.6 1.6 7.6 3.6 11.2 5.6l-6 10.4z m-191.6-5.6l-5.2-10.8c3.6-1.6 7.6-3.6 11.2-5.2l4.8 11.2-10.8 4.8z m170.4-4.8c-3.6-1.6-7.2-2.8-10.8-4l4-11.2c4 1.2 8 2.8 11.6 4.4l-4.8 10.8z m-148.8-4l-4-11.2c4-1.2 8-2.8 12-3.6l3.2 11.6c-4 0.8-7.6 2-11.2 3.2z m126.8-3.6c-3.6-1.2-7.6-2-11.2-2.8l2.8-11.6c4 0.8 8 2 12 3.2l-3.6 11.2z m-104.4-2.8l-2.8-11.6 12-2.4 2 12c-3.6 0.4-7.2 0.8-11.2 2z m81.6-2.4c-4-0.8-7.6-1.2-11.6-1.6l1.2-12c4 0.4 8.4 1.2 12.4 1.6l-2 12z m-58.4-1.6l-1.2-12c4-0.4 8.4-0.8 12.4-1.2l0.8 12c-4.4 0.4-8 0.8-12 1.2z m35.2-1.2c-4-0.4-7.6-0.4-11.6-0.4v-12c4 0 8.4 0 12.4 0.4l-0.8 12z" fill="#4A555F" /><path d="M485.2 866.8l-23.6-58-10.8-2c-23.6-4.4-46.4-12-68-22.4l-10-4.8-53.6 33.2-37.2-27.2 14.8-62-7.2-8c-14.8-16-27.6-34-38.8-53.2l-5.6-9.6-64.8-3.6-15.2-43.6 50-44-1.2-10.4c-1.6-12.8-2.4-24.4-2.4-36 0-12 0.8-24 2.4-37.2l1.2-10.8-52-44 14.4-44 69.2-5.2 5.2-9.2c10.8-18.4 24-36 38.4-51.6l7.2-8-16.4-68.8 37.2-26.8L380 248.8l9.6-4.4c18.8-8 38-14.4 57.6-18.4l10.4-2 27.2-66.4h46l27.2 66.4 10.4 2c19.6 4 39.2 10.4 57.6 18.4l9.6 4.4 60.8-37.6 37.2 26.8-16.4 68.8 7.2 8c13.6 14.4 25.6 30.4 35.6 46.8l5.6 8.8 69.6 4 15.2 43.6-50.4 44.8 1.6 10.8c2 14.4 3.2 28.8 3.2 42.8 0 10-0.4 20.4-1.6 30.4l-1.2 10.4 50.8 43.2-14.4 44-64.8 4.8-5.2 9.6c-11.2 20.8-25.2 40-41.6 58l-7.2 8 14.8 62-37.2 26.8-53.6-33.2-10 4.8c-21.6 10.4-44.8 17.6-68 22.4l-10.8 2-23.6 58h-46z m23.2-590c-129.6 0-235.2 105.6-235.2 235.2s105.6 235.2 235.2 235.2 235.2-105.6 235.2-235.2-105.6-235.2-235.2-235.2z" fill="#F68F6F" /><path d="M979.2 450.8c-30.4-236-232.8-413.6-470.8-413.6S68 214.8 37.6 450.8l-12-1.6c31.2-241.6 238.8-424 482.8-424s451.6 182.4 482.8 424l-12 1.6zM508.4 998.8c-112.4 0-222.4-39.2-309.2-110.8-85.6-70.4-145.2-168.8-167.6-276.8l12-2.4c22 105.2 80 201.2 163.2 269.6 84.8 69.6 191.6 108 301.6 108 110 0 216.8-38.4 301.6-108 83.6-68.8 141.6-164.4 163.2-269.6l12 2.4c-22.4 108-82 206-167.6 276.8-86.8 71.6-196.8 110.8-309.2 110.8z" fill="#4A555F" /><path d="M986.4 458.4l-52.4-40 7.6-9.6 42 32.4 30.4-45.6 10 6.8zM10.4 660.8L0 654.8 33.2 596l55.2 36.8-6.4 10-44.4-29.6z" fill="#4A555F" /><path d="M494.4 658.8v-34.4l-10-4c-19.2-8-33.2-24-38.4-43.6h29.2c6 12 18.4 20.4 33.2 20.4 20.4 0 36.8-16.4 36.8-36.8 0-18-14.8-32.8-32.8-32.8H508c-35.2 0-64-28.8-64-64 0-26.4 16-50 40.4-59.6l10-4v-34.4h27.6v34.4l10 4c19.6 8 34 24.8 38.8 44.4h-29.2c-5.6-12.8-18.8-21.6-33.6-21.6-20.4 0-36.8 16.4-36.8 36.8 0 20 16.4 36.4 36.4 36.4h4.4c33.2 0 60.4 27.2 60.4 60.4 0 26.4-16 50-40.4 59.6l-10 4v34.4h-27.6z" fill="#F68F6F" /><path d="M528 664.8h-39.6v-36.4l-6.4-2.4c-20.8-8.4-36.4-26-42-47.6l-2-7.6h40.8l1.6 3.2c5.2 10.8 16 17.2 27.6 17.2 16.8 0 30.8-13.6 30.8-30.8 0-14.8-12-26.8-26.8-26.8h-4c-38.8 0-70-31.6-70-70 0-28.8 17.2-54.4 44.4-65.2l6.4-2.4v-36.4h39.6V396l6.4 2.4c21.2 8.4 36.8 26.8 42.4 48.8l1.6 7.6h-40.8l-1.6-3.6c-4.8-10.8-16-18-28-18-16.8 0-30.8 13.6-30.8 30.8 0 16.8 13.6 30.4 30.4 30.4h4.4c36.8 0 66.4 29.6 66.4 66.4 0 28.8-17.2 54.4-44.4 65.2l-6.4 2.4v36.4z m-27.6-12h15.6V620l14-5.6c22.4-8.8 36.8-30.4 36.8-54 0-30-24.4-54.4-54.4-54.4H508c-23.6 0-42.4-19.2-42.4-42.4 0-23.6 19.2-42.8 42.8-42.8 15.6 0 29.6 8.4 37.2 21.6h17.2c-5.6-14.8-17.6-26.8-32.8-32.8L516 404v-32.4h-15.6v32.4l-14 5.6c-22.4 8.8-36.8 30.4-36.8 54 0 32 26 58 58 58h4.4c21.2 0 38.8 17.2 38.8 38.8 0 23.6-19.2 42.8-42.8 42.8-15.2 0-28.8-7.6-36.4-20.4h-17.6c6 14.4 17.2 26 32.4 32l14 5.6v32.4z" fill="#4A555F" /></svg>