<svg class="svg-icon" style="width: 1em;height: 1em;vertical-align: middle;fill: currentColor;overflow: hidden;" viewBox="0 0 1024 1024" version="1.1" xmlns="http://www.w3.org/2000/svg"><path d="M875.06 714.81v142.52a30.28 30.28 0 0 1-30.25 30.25H711.29A30.29 30.29 0 0 1 681 857.33V714.81a30.29 30.29 0 0 1 30.26-30.25h22.25a14.26 14.26 0 0 0 14.25-14.25V559.49a14.26 14.26 0 0 0-14.25-14.25h-178a14.27 14.27 0 0 0-14.26 14.25v111.26A14.27 14.27 0 0 0 555.52 685h21.81a30.29 30.29 0 0 1 30.25 30.26v142.52a29.75 29.75 0 0 1-1.05 7.89 30.29 30.29 0 0 1-29.2 22.33H443.81a30.28 30.28 0 0 1-30.25-30.25V715.26A30.29 30.29 0 0 1 443.81 685h22.7a14.24 14.24 0 0 0 14.25-14.53v-111a14.26 14.26 0 0 0-14.25-14.25h-178a14.27 14.27 0 0 0-14.26 14.25v111.28A14.27 14.27 0 0 0 288.49 685h22.25A30.29 30.29 0 0 1 341 715.26v142.52A30.28 30.28 0 0 1 310.74 888H177.22A30.28 30.28 0 0 1 147 857.78V715.26A30.29 30.29 0 0 1 177.22 685h22.25a14.24 14.24 0 0 0 14.26-14.53V515A30.29 30.29 0 0 1 244 484.73h222.51a14.26 14.26 0 0 0 14.25-14.25v-62.22A14.26 14.26 0 0 0 466.51 394H392a30.29 30.29 0 0 1-30.26-30.25V194.19A30.29 30.29 0 0 1 392 163.94h237a30.28 30.28 0 0 1 30.25 30.25v169.57A30.28 30.28 0 0 1 629 394h-73.5a14.27 14.27 0 0 0-14.26 14.25v62.22a14.27 14.27 0 0 0 14.26 14.25h222.55A30.29 30.29 0 0 1 808.3 515v155.75a14.6 14.6 0 0 0 0.28 2.83 14.27 14.27 0 0 0 13.9 11.42l22.33-0.44a30.28 30.28 0 0 1 30.25 30.25z" fill="#005EB8" /><path d="M605.62 865.68a155.45 155.45 0 0 1-147.17-105.21 34.1 34.1 0 0 0-43.33-21.28c-0.53 0.18-1.05 0.37-1.56 0.58v85.32A223 223 0 0 0 469.77 888h107.56a30.29 30.29 0 0 0 29.2-22.36z m269.44-69.55a33.28 33.28 0 0 0-2.56-5.57l-44.31-77.38a34.14 34.14 0 0 0-46.6-12.65l-77.38 44.32a34.14 34.14 0 0 0 22 63.39A156.75 156.75 0 0 1 681 846.05v11.28a30.29 30.29 0 0 0 30.26 30.25h30.77a223.39 223.39 0 0 0 63.42-76.66l7.77 13.57a34.14 34.14 0 0 0 61.81-5.59c0.29-0.79 0.54-1.6 0.76-2.42a33.87 33.87 0 0 0-0.73-20.35z m-57.69-158.34a223.84 223.84 0 0 0-340.11-110.87 225.09 225.09 0 0 0-22.87 18.32h12.12a14.26 14.26 0 0 1 14.25 14.25v111A14.24 14.24 0 0 1 466.51 685h-22.7a30.29 30.29 0 0 0-30.25 30.26v6.4a34 34 0 0 0 20.88-4.29l77.39-44.32a34.15 34.15 0 0 0-17-63.77 33.67 33.67 0 0 0-8.31 1 156.94 156.94 0 0 1 54.73-41.54v-9.29a14.27 14.27 0 0 1 14.26-14.25h178a14.26 14.26 0 0 1 14.25 14.25v87.7q2.75 6.19 5 12.69a34.14 34.14 0 0 0 64.61-22.09zM413.56 739.77v85.32a222.74 222.74 0 0 1-19.73-42.56 34.14 34.14 0 0 1 19.73-42.76z" fill="#FABA1E" /><path d="M742.06 887.58a223.87 223.87 0 0 1-272.29 0.45h107.56a30.29 30.29 0 0 0 29.2-22.36A154.91 154.91 0 0 0 681 846.05v11.28a30.29 30.29 0 0 0 30.26 30.25zM747.79 559.49v87.7a155.32 155.32 0 0 0-206.53-78.41v-9.29a14.27 14.27 0 0 1 14.26-14.25h178a14.26 14.26 0 0 1 14.27 14.25zM480.76 559.49v111A14.24 14.24 0 0 1 466.51 685h-22.7a30.29 30.29 0 0 0-30.25 30.26v6.4a34.25 34.25 0 0 1-25.71-16.94l-44.32-77.38a34.15 34.15 0 0 1 59.26-33.94l5.94 10.38a221.68 221.68 0 0 1 45.66-58.54h12.12a14.26 14.26 0 0 1 14.25 14.25z" fill="#FBE038" /></svg>