<svg class="svg-icon" style="width: 1em;height: 1em;vertical-align: middle;fill: currentColor;overflow: hidden;" viewBox="0 0 1024 1024" version="1.1" xmlns="http://www.w3.org/2000/svg"><path d="M208.00048 80a40 40 0 0 0-40 40v784A40 40 0 0 0 208.00048 944h448a40 40 0 0 0 40-40V80H208.00048z" fill="#BDBDBD" /><path d="M696.00048 72H208.00048c-26.464 0-48 21.536-48 48v784c0 26.464 21.536 48 48 48h448c26.464 0 48-21.536 48-48V80a8 8 0 0 0-8-8z m-8 832c0 17.648-14.352 32-32 32H208.00048c-17.648 0-32-14.352-32-32v-784c0-17.648 14.352-32 32-32h480v816z" fill="#37474F" /><path d="M695.98448 80H256.00048a40 40 0 0 0-40 40v784A40 40 0 0 0 256.00048 944h560a40 40 0 0 0 40-40V240L695.98448 80z" fill="#EEEEEE" /><path d="M861.64848 234.336l-160-160A8.048 8.048 0 0 0 696.00048 72H256.00048c-26.464 0-48 21.536-48 48v784c0 26.464 21.536 48 48 48h560c26.464 0 48-21.536 48-48V240a8 8 0 0 0-2.352-5.664zM848.00048 904c0 17.648-14.352 32-32 32H256.00048c-17.648 0-32-14.352-32-32v-784c0-17.648 14.352-32 32-32h436.688L848.00048 243.312V904z" fill="#37474F" /><path d="M248.00048 112a8 8 0 0 0-8 8v784a8 8 0 0 0 16 0v-784a8 8 0 0 0-8-8z" fill="#FAFAFA" /><path d="M824.00048 264a8 8 0 0 0-8 8v632a8 8 0 0 0 16 0V272a8 8 0 0 0-8-8z" fill="#BDBDBD" /><path d="M696.00048 80v160h160z" fill="#EEEEEE" /><path d="M861.64848 234.336l-160-160A8 8 0 0 0 688.00048 80v160a8 8 0 0 0 8 8h160a8 8 0 0 0 5.648-13.664zM704.00048 232V99.312l132.688 132.688H704.00048z" fill="#37474F" /><path d="M666.04848 542.752l-5.168-2.976c1.984-8.96 3.12-18.224 3.12-27.776s-1.12-18.816-3.104-27.76l5.152-2.976 16.624-14.624a12.832 12.832 0 0 0 2.64-16.016l-21.504-37.248a12.8 12.8 0 0 0-15.184-5.728l-20.976 7.088-5.248 3.04a127.76 127.76 0 0 0-48.016-27.888V384l-4.336-21.712a12.8 12.8 0 0 0-12.544-10.288h-43.008a12.784 12.784 0 0 0-12.544 10.288L497.60048 384v5.872a127.76 127.76 0 0 0-48.016 27.888l-5.232-3.024-20.976-7.088a12.8 12.8 0 0 0-15.184 5.728l-21.504 37.248a12.8 12.8 0 0 0 2.64 16.016l16.624 14.624 5.152 2.976c-1.984 8.944-3.104 18.224-3.104 27.76s1.12 18.816 3.104 27.76l-5.168 2.976-16.624 14.608a12.832 12.832 0 0 0-2.64 16.016l21.504 37.248a12.8 12.8 0 0 0 15.184 5.728l20.96-7.088 5.248-3.024a127.76 127.76 0 0 0 48.016 27.888V640l4.336 21.712a12.832 12.832 0 0 0 12.56 10.288h43.008c6.096 0 11.36-4.304 12.544-10.288L574.36848 640v-5.888a127.76 127.76 0 0 0 48.016-27.888l5.248 3.024 20.96 7.088a12.8 12.8 0 0 0 15.184-5.728l21.504-37.248a12.8 12.8 0 0 0-2.64-16.016l-16.592-14.592zM536.00048 583.12a71.104 71.104 0 1 1 0-142.208 71.104 71.104 0 0 1 0 142.208z" fill="#FF7043" /><path d="M687.95248 551.344l-16.624-14.608a8.16 8.16 0 0 0-1.28-0.928l-0.192-0.112A134.4 134.4 0 0 0 672.00048 512c0-7.84-0.72-15.84-2.16-23.824l18.112-15.52a20.88 20.88 0 0 0 4.304-26.032l-21.52-37.264a20.912 20.912 0 0 0-24.672-9.296l-22.416 7.744-0.256 0.144a134.688 134.688 0 0 0-41.104-23.872l-4.384-23.376a20.864 20.864 0 0 0-20.384-16.72h-43.008c-9.888 0-18.448 7.024-20.384 16.72L489.60048 384v0.144a134.192 134.192 0 0 0-41.088 23.904l-22.576-7.984a20.816 20.816 0 0 0-24.672 9.312l-21.504 37.264a20.832 20.832 0 0 0 4.288 26.016l17.92 15.536 0.192 0.112a131.6 131.6 0 0 0 0 47.536l-18.128 15.52a20.848 20.848 0 0 0-4.288 26.016l21.504 37.248c4.944 8.56 15.312 12.464 24.672 9.312l22.4-7.744 0.272-0.16a134.688 134.688 0 0 0 41.104 23.872l4.384 23.376a20.864 20.864 0 0 0 20.384 16.72h43.008c9.888 0 18.448-7.024 20.384-16.72L582.38448 640v-0.144a134.512 134.512 0 0 0 41.088-23.904l22.576 7.984a20.832 20.832 0 0 0 24.672-9.312l21.504-37.248a20.832 20.832 0 0 0-4.272-26.032z m-9.568 18.032l-21.504 37.248a4.768 4.768 0 0 1-5.696 2.144l-19.536-6.448-5.248-3.024a8.016 8.016 0 0 0-9.408 1.024 118.896 118.896 0 0 1-45.008 26.16 8 8 0 0 0-5.6 7.632l0.16 4.32-4.336 21.696a4.8 4.8 0 0 1-4.704 3.856h-43.008a4.8 4.8 0 0 1-4.704-3.856L505.60048 640v-5.888a8 8 0 0 0-5.6-7.632 118.896 118.896 0 0 1-45.008-26.16 8.032 8.032 0 0 0-9.408-1.024l-3.808 2.368-20.976 7.104a4.864 4.864 0 0 1-5.696-2.144L393.60048 569.376a4.8 4.8 0 0 1 0.992-6l15.344-13.68 5.168-2.992a8.016 8.016 0 0 0 3.808-8.672A120.544 120.544 0 0 1 416.00048 512c0-8.528 0.992-17.296 2.928-26.032a8 8 0 0 0-3.824-8.672l-3.872-2.048-16.64-14.624a4.8 4.8 0 0 1-0.992-6l21.504-37.248a4.816 4.816 0 0 1 5.696-2.16l19.536 6.448 5.232 3.024a8 8 0 0 0 9.408-1.04 118.464 118.464 0 0 1 44.992-26.144 8 8 0 0 0 5.6-7.632l-0.16-4.32 4.336-21.712a4.8 4.8 0 0 1 4.704-3.856h43.008a4.8 4.8 0 0 1 4.704 3.856l4.224 20.16v5.888a8 8 0 0 0 5.6 7.632 118.672 118.672 0 0 1 44.992 26.144 8 8 0 0 0 9.408 1.04l3.792-2.368 20.976-7.104a4.832 4.832 0 0 1 5.696 2.144l21.504 37.248a4.832 4.832 0 0 1-0.992 6.016l-15.328 13.696-5.168 2.976a8.016 8.016 0 0 0-3.824 8.672c1.968 8.72 2.96 17.488 2.96 26.016 0 8.544-0.992 17.296-2.928 26.032a8.032 8.032 0 0 0 3.808 8.672l4.48 2.592 16.032 14.08a4.8 4.8 0 0 1 0.992 6z m-142.384-136.48c-43.632 0-79.104 35.488-79.104 79.104s35.488 79.12 79.104 79.12 79.104-35.488 79.104-79.12-35.488-79.104-79.104-79.104z m0 142.224A63.184 63.184 0 0 1 472.89648 512c0-34.8 28.32-63.104 63.104-63.104s63.104 28.32 63.104 63.104a63.2 63.2 0 0 1-63.104 63.12z" fill="#37474F" /><path d="M1008.96048 487.024A23.92 23.92 0 0 0 992.00048 480H788.91248l43.888-43.888a24 24 0 1 0-33.936-33.936l-84.848 84.848a24 24 0 0 0-5.216 7.856l-0.112 0.368c-1.072 2.72-1.696 5.648-1.696 8.736v0.048c0 3.088 0.64 6.016 1.696 8.736l0.112 0.368c1.216 2.96 2.992 5.616 5.216 7.84l84.848 84.848a24 24 0 1 0 33.936-33.936L788.91248 528H992.00048a24 24 0 0 0 16.96-40.976z" fill="#26C6DA" /><path d="M1014.64048 481.376A31.824 31.824 0 0 0 992.00048 472H808.22448l30.224-30.24c12.48-12.48 12.48-32.768 0-45.248a32.016 32.016 0 0 0-45.248 0l-84.848 84.848a31.76 31.76 0 0 0-7.104 10.944 31.728 31.728 0 0 0-2.272 11.728c0 3.92 0.768 7.84 2.416 12.112 1.616 3.936 3.952 7.456 6.96 10.464l84.848 84.848c6.24 6.24 14.432 9.36 22.624 9.36s16.384-3.12 22.624-9.36c12.48-12.48 12.48-32.784 0-45.264L808.22448 536H992.00048a31.84 31.84 0 0 0 22.624-9.36c6.048-6.048 9.376-14.096 9.376-22.64a31.84 31.84 0 0 0-9.36-22.624z m-11.328 33.952A15.936 15.936 0 0 1 992.00048 520H788.91248a8 8 0 0 0-5.664 13.664l43.888 43.888a16 16 0 0 1-22.624 22.64l-84.848-84.848a16.496 16.496 0 0 1-4.688-11.344 15.984 15.984 0 0 1 4.688-11.296l84.848-84.848a16 16 0 1 1 22.624 22.624l-43.888 43.888a7.984 7.984 0 0 0 5.664 13.664H992.00048a15.952 15.952 0 0 1 11.312 27.296z" fill="#37474F" /><path d="M365.00848 503.984c0-3.088-0.64-6.016-1.696-8.736l-0.112-0.368a23.936 23.936 0 0 0-5.216-7.84l-84.848-84.848a24 24 0 1 0-33.936 33.936L283.07248 480H31.98448a24 24 0 0 0 0 48h251.088l-43.888 43.888a24 24 0 1 0 33.936 33.936l84.848-84.848a24 24 0 0 0 5.216-7.856l0.112-0.368c1.072-2.72 1.696-5.648 1.696-8.736l0.016-0.032z" fill="#26C6DA" /><path d="M370.59248 491.856a31.936 31.936 0 0 0-6.96-10.48l-84.848-84.848a31.888 31.888 0 0 0-22.624-9.376c-8.544 0-16.592 3.328-22.624 9.376-6.048 6.048-9.376 14.08-9.376 22.64 0 8.544 3.328 16.576 9.376 22.624l30.224 30.24H31.98448a31.84 31.84 0 0 0-22.624 9.36A31.632 31.632 0 0 0 0.00048 504c0 8.544 3.328 16.576 9.36 22.624l0.016 0.016c6.032 6.032 14.064 9.36 22.624 9.36h231.76l-30.224 30.224a32.048 32.048 0 0 0 0 45.264c6.24 6.24 14.432 9.36 22.624 9.36s16.384-3.12 22.624-9.36l84.848-84.848c2.992-2.992 5.328-6.496 7.104-10.944 1.504-3.808 2.272-7.728 2.272-11.728a33.296 33.296 0 0 0-2.416-12.112z m-14.8 18.208a16.064 16.064 0 0 1-3.472 5.248l-84.848 84.848a16 16 0 0 1-22.624-22.64l43.888-43.888a7.984 7.984 0 0 0-5.664-13.664H32.00048a15.984 15.984 0 1 1-0.016-31.952h251.088a8 8 0 0 0 5.664-13.664l-43.888-43.888c-3.024-3.024-4.688-7.04-4.688-11.312s1.664-8.288 4.688-11.312a16 16 0 0 1 22.624 0l84.864 84.864a16.496 16.496 0 0 1 4.688 11.328 17.056 17.056 0 0 1-1.232 6.032z" fill="#37474F" /><path d="M424.00048 776m-24 0a24 24 0 1 0 48 0 24 24 0 1 0-48 0Z" fill="#78909C" /><path d="M424.00048 744c-17.648 0-32 14.352-32 32s14.352 32 32 32 32-14.352 32-32-14.352-32-32-32z m0 48c-8.816 0-16-7.184-16-16s7.184-16 16-16 16 7.184 16 16-7.184 16-16 16z" fill="#37474F" /><path d="M536.00048 776m-24 0a24 24 0 1 0 48 0 24 24 0 1 0-48 0Z" fill="#78909C" /><path d="M536.00048 744c-17.648 0-32 14.352-32 32s14.352 32 32 32 32-14.352 32-32-14.352-32-32-32z m0 48c-8.816 0-16-7.184-16-16s7.184-16 16-16 16 7.184 16 16-7.184 16-16 16z" fill="#37474F" /><path d="M648.00048 776m-24 0a24 24 0 1 0 48 0 24 24 0 1 0-48 0Z" fill="#78909C" /><path d="M648.00048 744c-17.648 0-32 14.352-32 32s14.352 32 32 32 32-14.352 32-32-14.352-32-32-32z m0 48c-8.816 0-16-7.184-16-16s7.184-16 16-16 16 7.184 16 16-7.184 16-16 16z" fill="#37474F" /></svg>