<svg class="svg-icon" style="width: 1em;height: 1em;vertical-align: middle;fill: currentColor;overflow: hidden;" viewBox="0 0 1024 1024" version="1.1" xmlns="http://www.w3.org/2000/svg"><path d="M584.44 863.43l6.72 11.64h81.22l11.94-11.64z m64.71 34.28l3.73-3.64h-50.49a31.2 31.2 0 0 0 46.76 3.64z m172.27-448.4a327 327 0 0 0-324.85-331.87c-182.26-1.52-330.48 145.75-330.48 327.67a326.24 326.24 0 0 0 66.16 197.45L165.4 758.31a31.22 31.22 0 0 0 18.15 45.54l97.21 28.84 66.69 65a31.22 31.22 0 0 0 48.82-6.75l34.52-59.8v-41.4a50 50 0 0 1 49.84-49.84H587c-3.33-20-13.31-39.06-27.42-55.63a116.75 116.75 0 0 1 6.66-161.17c23.28-22.43 53.16-33.21 85.57-32.41 59.82 2.47 110.47 54 111.33 113.8a111.72 111.72 0 0 1-4.17 33.16 122.5 122.5 0 0 1-26.57 48.21 94.93 94.93 0 0 0-15 21l19 33H813a49.68 49.68 0 0 1 7.95 0.64l-60.59-104.81a326.14 326.14 0 0 0 61.06-186.38zM388.66 754.94l-34.29 60.92-44.62-41.39L256 760l33.61-59.69a201 201 0 0 0 100.94 55.08l-1.92-0.41zM668 356.49l-218.77 233.3a16.83 16.83 0 0 1-23.9 0.17L320 488.88a36.07 36.07 0 0 1 50.84-51.19l66.54 62.15 179.07-193.61A36 36 0 1 1 668 356.49z" fill="#005EB8" /><path d="M813 803.87l-97.19 28.84-31.52 30.72h-99.85L530.9 770.7l2.32-0.28a331.39 331.39 0 0 1-39.45 2.37c-9.63 0-19.15-0.44-28.57-1.26l-34.41 59.61v-41.4a50 50 0 0 1 49.84-49.84H587c-3.33-20-13.31-39.06-27.42-55.63a116.75 116.75 0 0 1 6.66-161.17c23.28-22.43 53.16-33.21 85.57-32.41 59.82 2.47 110.47 54 111.33 113.8a111.72 111.72 0 0 1-4.17 33.16 122.5 122.5 0 0 1-26.57 48.21 94.93 94.93 0 0 0-15 21l-6.45-11.16a200.9 200.9 0 0 1-100.77 58.16c1.09-0.25 2.19-0.52 3.28-0.79l34.26 59.32 39.85-38.83 58.35-17.32-9.47-16.4H813a49.68 49.68 0 0 1 7.95 0.64l10.28 17.8A31.22 31.22 0 0 1 813 803.87z" fill="#FABA1E" /><path d="M530.9 770.7l53.54 92.73h-137a16.68 16.68 0 0 1-16.63-16.64v-15.65l34.41-59.61c9.42 0.82 18.94 1.26 28.57 1.26a331.39 331.39 0 0 0 39.45-2.37zM687.48 773.62l-39.85 38.83-34.26-59.32c-1.09 0.27-2.19 0.54-3.28 0.79a200.9 200.9 0 0 0 100.77-58.16l6.45 11.16c-0.69 1.3-1.34 2.61-2 3.93a108.46 108.46 0 0 0-8.75 29h29.75l9.47 16.4zM862.79 789.74v57a16.65 16.65 0 0 1-16.63 16.64H684.32l31.52-30.72L813 803.87a31.22 31.22 0 0 0 18.15-45.53l-10.28-17.8a50 50 0 0 1 41.92 49.2z" fill="#FBE038" /><path d="M672.38 875.07l-19.5 19h-50.49a30.45 30.45 0 0 1-2.06-3.11l-9.17-15.89z" fill="#FABA1E" /><path d="M600.33 891a30.45 30.45 0 0 0 2.06 3.11h-162.1a9.5 9.5 0 0 1-9.5-9.5 10 10 0 0 1 0.14-1.65 9.5 9.5 0 0 1 9.36-7.85h150.87zM862.79 884.57a9.49 9.49 0 0 1-9.5 9.5H652.88l19.5-19h180.91a9.5 9.5 0 0 1 9.5 9.5z" fill="#FBE038" /></svg>